<?xml version="1.0" encoding="UTF-8" standalone="no"?>
<!-- Created with Inkscape (http://www.inkscape.org/) -->

<svg
   xmlns:dc="http://purl.org/dc/elements/1.1/"
   xmlns:cc="http://creativecommons.org/ns#"
   xmlns:rdf="http://www.w3.org/1999/02/22-rdf-syntax-ns#"
   xmlns:svg="http://www.w3.org/2000/svg"
   xmlns="http://www.w3.org/2000/svg"
   xmlns:sodipodi="http://sodipodi.sourceforge.net/DTD/sodipodi-0.dtd"
   xmlns:inkscape="http://www.inkscape.org/namespaces/inkscape"
   width="16"
   height="16"
   viewBox="0 0 4.2333332 4.2333335"
   version="1.1"
   id="svg4703"
   inkscape:version="0.92.1 r15371"
   sodipodi:docname="pepper.svg">
  <defs
     id="defs4697" />
  <sodipodi:namedview
     id="base"
     pagecolor="#ffffff"
     bordercolor="#666666"
     borderopacity="1.0"
     inkscape:pageopacity="0.0"
     inkscape:pageshadow="2"
     inkscape:zoom="31.678384"
     inkscape:cx="7.147518"
     inkscape:cy="7.6046608"
     inkscape:document-units="mm"
     inkscape:current-layer="layer1"
     showgrid="false"
     inkscape:window-width="1366"
     inkscape:window-height="706"
     inkscape:window-x="-8"
     inkscape:window-y="-8"
     inkscape:window-maximized="1"
     units="px" />
  <metadata
     id="metadata4700">
    <rdf:RDF>
      <cc:Work
         rdf:about="">
        <dc:format>image/svg+xml</dc:format>
        <dc:type
           rdf:resource="http://purl.org/dc/dcmitype/StillImage" />
        <dc:title></dc:title>
      </cc:Work>
    </rdf:RDF>
  </metadata>
  <g
     inkscape:label="Layer 1"
     inkscape:groupmode="layer"
     id="layer1"
     transform="translate(0,-292.76665)">
    <rect
       style="opacity:1;fill:none;fill-opacity:1;fill-rule:nonzero;stroke:#000000;stroke-width:0.13229166;stroke-linecap:butt;stroke-linejoin:miter;stroke-miterlimit:4;stroke-dasharray:none;stroke-dashoffset:0;stroke-opacity:1"
       id="rect5302"
       width="2.8898518"
       height="1.8792388"
       x="0.73499119"
       y="294.08508" />
    <path
       style="opacity:1;fill:#64000f;fill-opacity:1;fill-rule:nonzero;stroke:none;stroke-width:0.26499999;stroke-linecap:butt;stroke-linejoin:miter;stroke-miterlimit:4;stroke-dasharray:none;stroke-dashoffset:0;stroke-opacity:1"
       id="path7505"
       sodipodi:type="arc"
       sodipodi:cx="1.261178"
       sodipodi:cy="294.62796"
       sodipodi:rx="0.20045213"
       sodipodi:ry="0.1837478"
       sodipodi:start="0"
       sodipodi:end="6.2708982"
       sodipodi:open="true"
       d="M 1.4616302,294.62796 A 0.20045213,0.1837478 0 0 1 1.2617938,294.81171 0.20045213,0.1837478 0 0 1 1.0607297,294.62909 0.20045213,0.1837478 0 0 1 1.2593308,294.44422 0.20045213,0.1837478 0 0 1 1.461615,294.6257" />
    <path
       style="opacity:1;fill:#64000f;fill-opacity:1;fill-rule:nonzero;stroke:none;stroke-width:0.26499999;stroke-linecap:butt;stroke-linejoin:miter;stroke-miterlimit:4;stroke-dasharray:none;stroke-dashoffset:0;stroke-opacity:1"
       id="path7505-9"
       sodipodi:type="arc"
       sodipodi:cx="1.7706606"
       sodipodi:cy="294.71982"
       sodipodi:rx="0.20045213"
       sodipodi:ry="0.1837478"
       sodipodi:start="0"
       sodipodi:end="6.2708982"
       sodipodi:open="true"
       d="M 1.9711128,294.71982 A 0.20045213,0.1837478 0 0 1 1.7712764,294.90357 0.20045213,0.1837478 0 0 1 1.5702123,294.72095 0.20045213,0.1837478 0 0 1 1.7688134,294.53608 0.20045213,0.1837478 0 0 1 1.9710976,294.71756" />
    <path
       style="opacity:1;fill:#64000f;fill-opacity:1;fill-rule:nonzero;stroke:none;stroke-width:0.26499999;stroke-linecap:butt;stroke-linejoin:miter;stroke-miterlimit:4;stroke-dasharray:none;stroke-dashoffset:0;stroke-opacity:1"
       id="path7505-9-6"
       sodipodi:type="arc"
       sodipodi:cx="1.2695303"
       sodipodi:cy="295.20428"
       sodipodi:rx="0.20045213"
       sodipodi:ry="0.1837478"
       sodipodi:start="0"
       sodipodi:end="6.2708982"
       sodipodi:open="true"
       d="M 1.4699824,295.20428 A 0.20045213,0.1837478 0 0 1 1.270146,295.38803 0.20045213,0.1837478 0 0 1 1.0690819,295.20541 0.20045213,0.1837478 0 0 1 1.2676831,295.02054 0.20045213,0.1837478 0 0 1 1.4699673,295.20203" />
    <path
       style="opacity:1;fill:#64000f;fill-opacity:1;fill-rule:nonzero;stroke:none;stroke-width:0.26499999;stroke-linecap:butt;stroke-linejoin:miter;stroke-miterlimit:4;stroke-dasharray:none;stroke-dashoffset:0;stroke-opacity:1"
       id="path7505-9-6-9"
       sodipodi:type="arc"
       sodipodi:cx="1.7539562"
       sodipodi:cy="295.3212"
       sodipodi:rx="0.20045213"
       sodipodi:ry="0.1837478"
       sodipodi:start="0"
       sodipodi:end="6.2708982"
       sodipodi:open="true"
       d="M 1.9544083,295.3212 A 0.20045213,0.1837478 0 0 1 1.7545719,295.50494 0.20045213,0.1837478 0 0 1 1.5535078,295.32233 0.20045213,0.1837478 0 0 1 1.752109,295.13746 0.20045213,0.1837478 0 0 1 1.9543932,295.31894" />
    <path
       style="opacity:1;fill:#64000f;fill-opacity:1;fill-rule:nonzero;stroke:none;stroke-width:0.26499999;stroke-linecap:butt;stroke-linejoin:miter;stroke-miterlimit:4;stroke-dasharray:none;stroke-dashoffset:0;stroke-opacity:1"
       id="path7505-9-6-9-7"
       sodipodi:type="arc"
       sodipodi:cx="2.6476388"
       sodipodi:cy="295.04559"
       sodipodi:rx="0.20045213"
       sodipodi:ry="0.1837478"
       sodipodi:start="0"
       sodipodi:end="6.2708982"
       sodipodi:open="true"
       d="M 2.8480909,295.04559 A 0.20045213,0.1837478 0 0 1 2.6482545,295.22934 0.20045213,0.1837478 0 0 1 2.4471904,295.04672 0.20045213,0.1837478 0 0 1 2.6457916,294.86185 0.20045213,0.1837478 0 0 1 2.8480758,295.04334" />
    <path
       style="opacity:1;fill:#64000f;fill-opacity:1;fill-rule:nonzero;stroke:none;stroke-width:0.26499999;stroke-linecap:butt;stroke-linejoin:miter;stroke-miterlimit:4;stroke-dasharray:none;stroke-dashoffset:0;stroke-opacity:1"
       id="path7505-9-6-9-7-4"
       sodipodi:type="arc"
       sodipodi:cx="2.2300301"
       sodipodi:cy="295.26273"
       sodipodi:rx="0.20045213"
       sodipodi:ry="0.1837478"
       sodipodi:start="0"
       sodipodi:end="6.2708982"
       sodipodi:open="true"
       d="M 2.4304822,295.26273 A 0.20045213,0.1837478 0 0 1 2.2306458,295.44647 0.20045213,0.1837478 0 0 1 2.0295817,295.26385 0.20045213,0.1837478 0 0 1 2.2281829,295.07899 0.20045213,0.1837478 0 0 1 2.4304671,295.26047" />
    <path
       style="opacity:1;fill:#64000f;fill-opacity:1;fill-rule:nonzero;stroke:none;stroke-width:0.26499999;stroke-linecap:butt;stroke-linejoin:miter;stroke-miterlimit:4;stroke-dasharray:none;stroke-dashoffset:0;stroke-opacity:1"
       id="path7505-9-6-9-7-4-1"
       sodipodi:type="arc"
       sodipodi:cx="2.3469603"
       sodipodi:cy="294.64465"
       sodipodi:rx="0.20045213"
       sodipodi:ry="0.1837478"
       sodipodi:start="0"
       sodipodi:end="6.2708982"
       sodipodi:open="true"
       d="M 2.5474124,294.64465 A 0.20045213,0.1837478 0 0 1 2.347576,294.8284 0.20045213,0.1837478 0 0 1 2.146512,294.64578 0.20045213,0.1837478 0 0 1 2.3451131,294.46091 0.20045213,0.1837478 0 0 1 2.5473973,294.6424" />
    <path
       style="opacity:1;fill:#64000f;fill-opacity:1;fill-rule:nonzero;stroke:none;stroke-width:0.26499999;stroke-linecap:butt;stroke-linejoin:miter;stroke-miterlimit:4;stroke-dasharray:none;stroke-dashoffset:0;stroke-opacity:1"
       id="path7505-9-6-9-7-4-1-2"
       sodipodi:type="arc"
       sodipodi:cx="3.0735996"
       sodipodi:cy="295.47153"
       sodipodi:rx="0.20045213"
       sodipodi:ry="0.1837478"
       sodipodi:start="0"
       sodipodi:end="6.2708982"
       sodipodi:open="true"
       d="M 3.2740517,295.47153 A 0.20045213,0.1837478 0 0 1 3.0742153,295.65527 0.20045213,0.1837478 0 0 1 2.8731512,295.47266 0.20045213,0.1837478 0 0 1 3.0717524,295.28779 0.20045213,0.1837478 0 0 1 3.2740366,295.46927" />
    <path
       style="opacity:1;fill:#64000f;fill-opacity:1;fill-rule:nonzero;stroke:none;stroke-width:0.26499999;stroke-linecap:butt;stroke-linejoin:miter;stroke-miterlimit:4;stroke-dasharray:none;stroke-dashoffset:0;stroke-opacity:1"
       id="path7505-9-6-9-7-4-1-2-9"
       sodipodi:type="arc"
       sodipodi:cx="3.0903039"
       sodipodi:cy="294.69479"
       sodipodi:rx="0.20045213"
       sodipodi:ry="0.1837478"
       sodipodi:start="0"
       sodipodi:end="6.2708982"
       sodipodi:open="true"
       d="M 3.290756,294.69479 A 0.20045213,0.1837478 0 0 1 3.0909196,294.87854 0.20045213,0.1837478 0 0 1 2.8898555,294.69592 0.20045213,0.1837478 0 0 1 3.0884567,294.51105 0.20045213,0.1837478 0 0 1 3.2907409,294.69254" />
    <path
       style="opacity:1;fill:#64000f;fill-opacity:1;fill-rule:nonzero;stroke:none;stroke-width:0.26499999;stroke-linecap:butt;stroke-linejoin:miter;stroke-miterlimit:4;stroke-dasharray:none;stroke-dashoffset:0;stroke-opacity:1"
       id="path7505-9-6-9-7-4-1-2-9-1"
       sodipodi:type="arc"
       sodipodi:cx="2.5724692"
       sodipodi:cy="295.55508"
       sodipodi:rx="0.20045213"
       sodipodi:ry="0.1837478"
       sodipodi:start="0"
       sodipodi:end="6.2708982"
       sodipodi:open="true"
       d="M 2.7729214,295.55508 A 0.20045213,0.1837478 0 0 1 2.573085,295.73883 0.20045213,0.1837478 0 0 1 2.3720209,295.55621 0.20045213,0.1837478 0 0 1 2.570622,295.37134 0.20045213,0.1837478 0 0 1 2.7729062,295.55283" />
    <path
       style="opacity:1;fill:#64000f;fill-opacity:1;fill-rule:nonzero;stroke:none;stroke-width:0.26499999;stroke-linecap:butt;stroke-linejoin:miter;stroke-miterlimit:4;stroke-dasharray:none;stroke-dashoffset:0;stroke-opacity:1"
       id="path7505-9-6-9-7-4-1-2-9-1-3"
       sodipodi:type="arc"
       sodipodi:cx="1.3614041"
       sodipodi:cy="295.65527"
       sodipodi:rx="0.20045213"
       sodipodi:ry="0.1837478"
       sodipodi:start="0"
       sodipodi:end="6.2708982"
       sodipodi:open="true"
       d="M 1.5618562,295.65527 A 0.20045213,0.1837478 0 0 1 1.3620198,295.83902 0.20045213,0.1837478 0 0 1 1.1609557,295.6564 0.20045213,0.1837478 0 0 1 1.3595569,295.47153 0.20045213,0.1837478 0 0 1 1.5618411,295.65302" />
    <path
       style="opacity:1;fill:#64000f;fill-opacity:1;fill-rule:nonzero;stroke:none;stroke-width:0.26499999;stroke-linecap:butt;stroke-linejoin:miter;stroke-miterlimit:4;stroke-dasharray:none;stroke-dashoffset:0;stroke-opacity:1"
       id="path7505-9-6-9-7-4-1-2-9-1-3-7"
       sodipodi:type="arc"
       sodipodi:cx="2.0045214"
       sodipodi:cy="295.68036"
       sodipodi:rx="0.20045213"
       sodipodi:ry="0.1837478"
       sodipodi:start="0"
       sodipodi:end="6.2708982"
       sodipodi:open="true"
       d="M 2.2049735,295.68036 A 0.20045213,0.1837478 0 0 1 2.0051371,295.86411 0.20045213,0.1837478 0 0 1 1.804073,295.68149 0.20045213,0.1837478 0 0 1 2.0026742,295.49662 0.20045213,0.1837478 0 0 1 2.2049584,295.6781" />
  </g>
</svg>
